<?xml version="1.0" encoding="UTF-8"?>
<svg viewBox="0 0 160 800" xmlns="http://www.w3.org/2000/svg">
  <defs>
    <filter id="organicTexture" x="0%" y="0%" width="100%" height="100%">
      <feTurbulence baseFrequency="0.02" numOctaves="2" result="noise" seed="2" />
      <feDisplacementMap in="SourceGraphic" in2="noise" scale="1.5" />
    </filter>
  </defs>
  
  <!-- Main vine with organic texture -->
  <path
    d="M25,0 Q35,120 30,240 Q25,360 35,480 Q40,600 30,720 Q25,800 35,800"
    stroke="rgba(139, 90, 60, 0.4)"
    stroke-width="3"
    fill="none"
    filter="url(#organicTexture)"
  />
  
  <!-- Botanical elements with depth -->
  <g fill="rgba(90, 107, 71, 0.15)" filter="url(#organicTexture)">
    <!-- Leaves with shadow layers -->
    <path d="M30,100 Q42,95 48,108 Q42,120 30,115 Q18,108 30,100" />
    <path d="M28,102 Q38,98 43,108 Q38,118 28,113 Q18,108 28,102" fill="rgba(139,69,19,0.1)" />
    
    <path d="M35,220 Q47,215 53,228 Q47,240 35,235 Q23,228 35,220" />
    <path d="M33,222 Q43,218 48,228 Q43,238 33,233 Q23,228 33,222" fill="rgba(139,69,19,0.1)" />
    
    <path d="M27,340 Q39,335 45,348 Q39,360 27,355 Q15,348 27,340" />
    <path d="M25,342 Q35,338 40,348 Q35,358 25,353 Q15,348 25,342" fill="rgba(139,69,19,0.1)" />
    
    <!-- Flowers with multiple layers -->
    <circle cx="40" cy="150" r="5" />
    <circle cx="38" cy="148" r="4" fill="rgba(139,69,19,0.2)" />
    <circle cx="37" cy="147" r="2.5" fill="rgba(168, 181, 160, 0.3)" />
    
    <circle cx="23" cy="380" r="4" />
    <circle cx="21" cy="378" r="3" fill="rgba(139,69,19,0.2)" />
    <circle cx="20" cy="377" r="2" fill="rgba(168, 181, 160, 0.3)" />
  </g>
</svg>