<svg version="1.1" xmlns="http://www.w3.org/2000/svg" viewBox="0 0 652 100" width="1956" height="300">
  <!-- svg-source:excalidraw -->
  
  <defs>
    <style class="style-fonts">
      @font-face {
        font-family: "Virgil";
        src: url("https://excalidraw.com/Virgil.woff2");
      }
      @font-face {
        font-family: "Cascadia";
        src: url("https://excalidraw.com/Cascadia.woff2");
      }
    </style>
  </defs>
  <rect x="0" y="0" width="652" height="100" fill="#ffffff"></rect><g stroke-linecap="round" transform="translate(10 10) rotate(0 72 40)"><path d="M20 0 M20 0 C50.52 -2.23, 82.38 0.75, 124 0 M20 0 C46.96 0.24, 72.15 -0.8, 124 0 M124 0 C135.74 -0.34, 143.69 7.11, 144 20 M124 0 C137.07 -2.09, 143.19 5.1, 144 20 M144 20 C145.56 32.35, 142.25 46.29, 144 60 M144 20 C144.65 35.33, 144.43 51.67, 144 60 M144 60 C143.71 71.86, 137.8 79.01, 124 80 M144 60 C144.07 75.13, 135.44 80.99, 124 80 M124 80 C100.99 81.71, 79.85 78.24, 20 80 M124 80 C90.34 79.41, 57.86 79.78, 20 80 M20 80 C7.25 79.14, -1.58 74.2, 0 60 M20 80 C7.41 80.4, -1.43 72.98, 0 60 M0 60 C0.26 49.09, -0.99 41.36, 0 20 M0 60 C-0.05 47.43, -1.18 32.59, 0 20 M0 20 C0.86 8.07, 6.5 0.86, 20 0 M0 20 C1.19 4.93, 4.41 0.47, 20 0" stroke="#000000" stroke-width="1" fill="none"></path></g><g transform="translate(55.21666717529297 37.5) rotate(0 26.78333282470703 12.5)"><text x="26.78333282470703" y="0" font-family="Virgil, Segoe UI Emoji" font-size="20px" fill="#000000" text-anchor="middle" style="white-space: pre;" direction="ltr" dominant-baseline="text-before-edge">Data</text></g><g stroke-linecap="round" transform="translate(254 10) rotate(0 72 40)"><path d="M20 0 M20 0 C56.95 -0.78, 90.03 -0.93, 124 0 M20 0 C56.46 1.3, 92.29 0.62, 124 0 M124 0 C136.12 1.16, 142.88 6.18, 144 20 M124 0 C135.06 -0.73, 141.94 6.93, 144 20 M144 20 C143.71 35.2, 144.01 46.62, 144 60 M144 20 C143.68 29.52, 143.93 37.44, 144 60 M144 60 C143.89 73.76, 139.33 81.65, 124 80 M144 60 C142.97 74.72, 137.09 80.53, 124 80 M124 80 C84.41 78.11, 44.89 79.8, 20 80 M124 80 C93.63 79.51, 64.46 79.91, 20 80 M20 80 C8.61 81.44, 1.47 73.59, 0 60 M20 80 C5.6 80.71, -1.8 71.21, 0 60 M0 60 C-0.67 48.96, -0.35 36.97, 0 20 M0 60 C-0.8 46.37, -0.77 32.8, 0 20 M0 20 C-1.79 6.93, 8.37 -0.57, 20 0 M0 20 C1.87 7.28, 5.93 -0.12, 20 0" stroke="#000000" stroke-width="1" fill="none"></path></g><g transform="translate(293.57500076293945 37.5) rotate(0 32.42499923706055 12.5)"><text x="32.42499923706055" y="0" font-family="Virgil, Segoe UI Emoji" font-size="20px" fill="#000000" text-anchor="middle" style="white-space: pre;" direction="ltr" dominant-baseline="text-before-edge">Models</text></g><g stroke-linecap="round" transform="translate(498 10) rotate(0 72 40)"><path d="M20 0 M20 0 C56.82 2.28, 92.36 0.91, 124 0 M20 0 C44.64 -0.41, 69.44 -0.31, 124 0 M124 0 C137.56 0.91, 143.39 6.77, 144 20 M124 0 C137.14 1.6, 144.15 5.51, 144 20 M144 20 C143.58 30.14, 144.09 37.1, 144 60 M144 20 C144.91 31.33, 144.69 43.46, 144 60 M144 60 C144.46 75.1, 137.18 78.98, 124 80 M144 60 C144.9 71.77, 139.22 80.38, 124 80 M124 80 C92.68 79.59, 63.73 80.4, 20 80 M124 80 C82.84 80.3, 41.73 79.99, 20 80 M20 80 C4.82 80.12, -1.13 71.9, 0 60 M20 80 C5.64 81.37, -0.66 75, 0 60 M0 60 C-1.22 45.94, -1.17 32.01, 0 20 M0 60 C-0.34 52.38, 0.21 42.83, 0 20 M0 20 C-0.1 5.52, 8.22 1.62, 20 0 M0 20 C-0.95 6.49, 6.63 -0.67, 20 0" stroke="#000000" stroke-width="1" fill="none"></path></g><g transform="translate(534.283332824707 37.5) rotate(0 35.71666717529297 12.5)"><text x="35.71666717529297" y="0" font-family="Virgil, Segoe UI Emoji" font-size="20px" fill="#000000" text-anchor="middle" style="white-space: pre;" direction="ltr" dominant-baseline="text-before-edge">Metrics</text></g><g stroke-linecap="round"><g transform="translate(167 52) rotate(0 36.75085540076719 -0.43894956758248327)"><path d="M1.16 -0.21 C13 -0.22, 59.02 -0.92, 71.01 -0.69 M0.31 -1.36 C12.52 -1.18, 61.1 0.35, 73.2 0.48" stroke="#000000" stroke-width="1" fill="none"></path></g><g transform="translate(167 52) rotate(0 36.75085540076719 -0.43894956758248327)"><path d="M44.44 8.45 C52.03 8.8, 63.47 4.58, 72.15 -0.44 M45.75 9.49 C53.5 7.11, 63.01 4.79, 73.32 0.54" stroke="#000000" stroke-width="1" fill="none"></path></g><g transform="translate(167 52) rotate(0 36.75085540076719 -0.43894956758248327)"><path d="M44.9 -12.06 C52.25 -5.68, 63.55 -3.87, 72.15 -0.44 M46.21 -11.03 C53.7 -7.01, 63.06 -2.94, 73.32 0.54" stroke="#000000" stroke-width="1" fill="none"></path></g></g><mask></mask><g stroke-linecap="round"><g transform="translate(411 50) rotate(0 39.732736320039294 -0.0028139895270840043)"><path d="M0.97 1.06 C14.33 1.16, 66.08 0.73, 79.44 0.69 M0.02 0.56 C13.24 0.32, 64.7 -0.79, 78.2 -1.08" stroke="#000000" stroke-width="1" fill="none"></path></g><g transform="translate(411 50) rotate(0 39.732736320039294 -0.0028139895270840043)"><path d="M51.99 8.85 C58.11 8.88, 65 5.29, 79.59 -0.92 M49.9 8.98 C59.92 6.29, 68.54 3.87, 78.88 -1.02" stroke="#000000" stroke-width="1" fill="none"></path></g><g transform="translate(411 50) rotate(0 39.732736320039294 -0.0028139895270840043)"><path d="M51.56 -11.67 C57.79 -6.7, 64.78 -5.35, 79.59 -0.92 M49.46 -11.54 C59.64 -7.65, 68.39 -3.51, 78.88 -1.02" stroke="#000000" stroke-width="1" fill="none"></path></g></g><mask></mask></svg>