<svg xmlns="http://www.w3.org/2000/svg" width="160" height="160" viewBox="0 0 160 160">
  <g stroke="#6b6252" stroke-opacity="0.7" stroke-width="2" fill="none" stroke-linecap="round" stroke-linejoin="round">
    <path d="M20 28c6-8 14-8 20 0M48 28c6-8 14-8 20 0"/>
    <path d="M28 74c8-6 16-6 24 0M60 74c8-6 16-6 24 0"/>
    <circle cx="118" cy="36" r="10"/>
    <path d="M110 48l16 16M126 48l-16 16"/>
    <path d="M24 120l36-12-12 36z"/>
    <path d="M98 112c10-2 18 2 20 8 2 6-4 12-14 14-10 2-18-2-20-8-2-6 4-12 14-14z"/>
  </g>
</svg>


